<svg fill="none" height="512" viewBox="0 0 24 24" width="512" xmlns="http://www.w3.org/2000/svg"><g clip-rule="evenodd" fill="rgb(0,0,0)" fill-rule="evenodd"><path d="m5.25 4c0-1.51878 1.23122-2.75 2.75-2.75h8c1.5188 0 2.75 1.23122 2.75 2.75v16c0 1.5188-1.2312 2.75-2.75 2.75h-8c-1.51878 0-2.75-1.2312-2.75-2.75zm2.75-1.25c-.69036 0-1.25.55964-1.25 1.25v16c0 .6904.55964 1.25 1.25 1.25h8c.6904 0 1.25-.5596 1.25-1.25v-16c0-.69036-.5596-1.25-1.25-1.25z"/><path d="m9 1.25c-.41421 0-.75.33579-.75.75v1c0 .9665.7835 1.75 1.75 1.75h4c.9665 0 1.75-.7835 1.75-1.75v-1c0-.41421-.3358-.75-.75-.75z"/></g></svg>